Coordinates
version=1
nRows=27
nColumns=38
inDegrees=no

Units are S.I. units (second, meters, Newtons, ...)
If the header above contains a line with 'inDegrees', this indicates whether rotational values are in degrees (yes) or radians (no).

endheader
time	pelvis_tilt	pelvis_list	pelvis_rotation	pelvis_tx	pelvis_ty	pelvis_tz	hip_flexion_r	hip_adduction_r	hip_rotation_r	knee_angle_r	ankle_angle_r	subtalar_angle_r	mtp_angle_r	hip_flexion_l	hip_adduction_l	hip_rotation_l	knee_angle_l	ankle_angle_l	subtalar_angle_l	mtp_angle_l	lumbar_extension	lumbar_bending	lumbar_rotation	arm_flex_r	arm_add_r	arm_rot_r	elbow_flex_r	pro_sup_r	wrist_flex_r	wrist_dev_r	arm_flex_l	arm_add_l	arm_rot_l	elbow_flex_l	pro_sup_l	wrist_flex_l	wrist_dev_l
5	2.57694	1.39111	-0.940156	0.57278	1.99337	0.952262	0.00904208	-0.00317209	-0.00718133	0.757043	-0.297466	0	0	0.00472416	-0.0674469	-0.040037	0.383482	-0.230254	0	0	-0.192522	0.136767	-0.148346	0.472912	-0.469698	0.346397	1.45244	1.5708	0	0	0.324423	-0.392289	0.276035	1.59589	1.5708	0	0
5.01	2.5669	1.39175	-0.929628	0.572495	1.99606	0.952396	0.0136206	-0.00323208	-0.0120182	0.730602	-0.292204	0	0	0.0025914	-0.0684661	-0.037714	0.382574	-0.228032	0	0	-0.19146	0.138616	-0.149657	0.476479	-0.468755	0.348961	1.44797	1.5708	0	0	0.325719	-0.390811	0.275217	1.59253	1.5708	0	0
5.02	2.5616	1.39149	-0.923583	0.5721	1.99868	0.952517	0.0165479	-0.00386685	-0.0185861	0.703713	-0.288446	0	0	-0.000935582	-0.0692097	-0.0356016	0.380966	-0.226043	0	0	-0.191008	0.140561	-0.15137	0.480826	-0.468046	0.352345	1.44292	1.5708	0	0	0.327516	-0.389091	0.274398	1.58825	1.5708	0	0
5.03	2.56163	1.39092	-0.922622	0.57164	2.00126	0.95262	0.0177579	-0.00499893	-0.0255539	0.676225	-0.285195	0	0	-0.00568051	-0.0692341	-0.0333905	0.37825	-0.224311	0	0	-0.190913	0.142063	-0.153187	0.485682	-0.467697	0.356338	1.43782	1.5708	0	0	0.329967	-0.387442	0.274047	1.58324	1.5708	0	0
5.04	2.56429	1.38978	-0.923455	0.571255	2.00377	0.95277	0.0172481	-0.00572644	-0.0333674	0.64811	-0.282868	0	0	-0.0104538	-0.0695727	-0.0316127	0.377495	-0.222079	0	0	-0.191596	0.143416	-0.156009	0.491458	-0.466833	0.361202	1.43239	1.5708	0	0	0.332559	-0.386548	0.273354	1.57843	1.5708	0	0
5.05	2.5643	1.38936	-0.921159	0.570882	2.00627	0.952892	0.0169785	-0.00611625	-0.0411948	0.620238	-0.281495	0	0	-0.0138938	-0.069936	-0.0295326	0.377908	-0.219989	0	0	-0.19211	0.144806	-0.159961	0.497546	-0.464963	0.366084	1.42729	1.5708	0	0	0.333565	-0.385945	0.270629	1.57536	1.5708	0	0
5.06	2.56583	1.38824	-0.920494	0.570477	2.00875	0.953084	0.0152014	-0.00608213	-0.0480475	0.592275	-0.281468	0	0	-0.0181522	-0.0704756	-0.0285583	0.378152	-0.217521	0	0	-0.193039	0.146597	-0.164555	0.50545	-0.463109	0.373735	1.42032	1.5708	0	0	0.333583	-0.385026	0.26636	1.5721	1.5708	0	0
5.07	2.56963	1.38628	-0.92209	0.570117	2.01115	0.953335	0.0126178	-0.00581196	-0.0549515	0.566522	-0.281459	0	0	-0.0230482	-0.0715317	-0.0292267	0.378667	-0.215463	0	0	-0.19453	0.148618	-0.168048	0.51222	-0.461639	0.380102	1.41339	1.5708	0	0	0.335113	-0.383674	0.263781	1.56722	1.5708	0	0
5.08	2.57538	1.38423	-0.925573	0.569783	2.01344	0.953547	0.00955916	-0.00542149	-0.0598636	0.542536	-0.281002	0	0	-0.0274884	-0.0725202	-0.0309505	0.380371	-0.213517	0	0	-0.196159	0.150374	-0.17042	0.517707	-0.461035	0.384906	1.40749	1.5708	0	0	0.338706	-0.382147	0.263557	1.56103	1.5708	0	0
5.09	2.58138	1.38306	-0.929281	0.569482	2.01562	0.953706	0.00743456	-0.00521108	-0.0622385	0.520962	-0.280693	0	0	-0.0316227	-0.0726022	-0.0304713	0.381621	-0.211094	0	0	-0.19711	0.151504	-0.17255	0.522574	-0.460577	0.388842	1.40238	1.5708	0	0	0.342889	-0.38068	0.264082	1.55465	1.5708	0	0
5.1	2.58108	1.3833	-0.92712	0.569254	2.01781	0.953774	0.00776899	-0.00466139	-0.0625268	0.502846	-0.28031	0	0	-0.0333606	-0.0727684	-0.0307792	0.382487	-0.209566	0	0	-0.19691	0.152838	-0.17515	0.52731	-0.45924	0.392307	1.39818	1.5708	0	0	0.344775	-0.378734	0.261765	1.55039	1.5708	0	0
5.11	2.57746	1.38417	-0.921918	0.569107	2.01995	0.953798	0.00888887	-0.00369522	-0.0609278	0.486742	-0.280379	0	0	-0.0344791	-0.07298	-0.0301718	0.3816	-0.208815	0	0	-0.196337	0.154343	-0.177187	0.53179	-0.45822	0.395674	1.39475	1.5708	0	0	0.346367	-0.376587	0.259167	1.54656	1.5708	0	0
5.12	2.57621	1.38418	-0.919129	0.569028	2.02203	0.953889	0.00904133	-0.00263522	-0.0590332	0.472764	-0.280776	0	0	-0.0363082	-0.0737293	-0.0303381	0.381666	-0.208037	0	0	-0.196494	0.155901	-0.178509	0.536432	-0.457753	0.399363	1.39066	1.5708	0	0	0.349071	-0.374535	0.257902	1.54149	1.5708	0	0
5.13	2.57703	1.3834	-0.918299	0.569005	2.02404	0.954003	0.00787061	-0.00134738	-0.0562459	0.460055	-0.281603	0	0	-0.0389998	-0.0747716	-0.0303803	0.381726	-0.207115	0	0	-0.196798	0.157432	-0.179893	0.541516	-0.457161	0.403566	1.38507	1.5708	0	0	0.352558	-0.373017	0.257854	1.53531	1.5708	0	0
5.14	2.57994	1.38202	-0.919456	0.569034	2.02602	0.954123	0.00581949	-9.77723e-05	-0.0537129	0.449329	-0.282838	0	0	-0.0420766	-0.0760395	-0.0314498	0.382469	-0.206111	0	0	-0.197442	0.159025	-0.180875	0.546357	-0.456814	0.407483	1.37961	1.5708	0	0	0.356556	-0.370829	0.257983	1.52838	1.5708	0	0
5.15	2.58134	1.3814	-0.919162	0.569097	2.02802	0.954215	0.00406721	0.000916803	-0.0505831	0.439584	-0.284701	0	0	-0.0449414	-0.0769516	-0.0312103	0.38225	-0.205075	0	0	-0.19765	0.160398	-0.181765	0.550308	-0.456257	0.410332	1.37552	1.5708	0	0	0.35997	-0.368457	0.257424	1.52237	1.5708	0	0
5.16	2.57841	1.38221	-0.91459	0.569236	2.03011	0.954251	0.00355091	0.00165581	-0.0475726	0.430787	-0.2864	0	0	-0.0461751	-0.0775707	-0.0307014	0.381441	-0.204703	0	0	-0.196939	0.161503	-0.182866	0.552602	-0.454576	0.410022	1.37406	1.5708	0	0	0.361806	-0.365969	0.255347	1.51833	1.5708	0	0
5.17	2.57922	1.38251	-0.913597	0.569365	2.03212	0.954249	0.00111651	0.00206934	-0.0447998	0.420918	-0.287835	0	0	-0.0479331	-0.0781034	-0.0300706	0.381653	-0.204051	0	0	-0.196747	0.162415	-0.183827	0.556109	-0.454839	0.413985	1.37018	1.5708	0	0	0.364618	-0.363688	0.254349	1.51329	1.5708	0	0
5.18	2.583	1.38275	-0.915301	0.569503	2.03407	0.954188	-0.00197054	0.00172376	-0.0429798	0.411622	-0.288275	0	0	-0.0496133	-0.0783785	-0.0290769	0.382922	-0.202936	0	0	-0.195917	0.162852	-0.185219	0.559541	-0.453944	0.416849	1.36559	1.5708	0	0	0.367438	-0.360282	0.252453	1.50654	1.5708	0	0
5.19	2.58509	1.38353	-0.915016	0.569654	2.03604	0.954064	-0.00538226	0.00140577	-0.041726	0.401422	-0.28813	0	0	-0.0501019	-0.078558	-0.0284966	0.384895	-0.201606	0	0	-0.194432	0.163222	-0.187316	0.56282	-0.45301	0.420015	1.3615	1.5708	0	0	0.369306	-0.357083	0.249656	1.5008	1.5708	0	0
5.2	2.58132	1.38593	-0.908626	0.569918	2.03815	0.953853	-0.00724351	0.0010113	-0.0422719	0.39156	-0.287946	0	0	-0.0483608	-0.0787637	-0.0282398	0.386843	-0.200513	0	0	-0.191826	0.163394	-0.189699	0.564316	-0.452062	0.421453	1.36019	1.5708	0	0	0.369391	-0.35412	0.245567	1.49788	1.5708	0	0
5.21	2.57762	1.38851	-0.902222	0.570246	2.04023	0.953601	-0.00924422	0.000291145	-0.0435621	0.381917	-0.288246	0	0	-0.0464969	-0.0790516	-0.0276972	0.389001	-0.199245	0	0	-0.188791	0.163278	-0.192027	0.565645	-0.451122	0.422971	1.35879	1.5708	0	0	0.369636	-0.351326	0.241982	1.49464	1.5708	0	0
5.22	2.57721	1.3906	-0.899185	0.570623	2.04225	0.953343	-0.0122677	-0.00064654	-0.044852	0.372865	-0.289217	0	0	-0.0456543	-0.0793035	-0.0270783	0.39099	-0.197855	0	0	-0.186144	0.162801	-0.193503	0.566506	-0.450673	0.424115	1.3572	1.5708	0	0	0.370959	-0.348279	0.23962	1.49014	1.5708	0	0
5.23	2.58035	1.39213	-0.899701	0.571055	2.04423	0.953115	-0.0166223	-0.00179895	-0.0462628	0.363772	-0.29296	0	0	-0.0459219	-0.0792114	-0.0261788	0.392478	-0.196023	0	0	-0.184272	0.161926	-0.194324	0.566589	-0.450553	0.424378	1.3559	1.5708	0	0	0.373213	-0.345549	0.238738	1.48506	1.5708	0	0
5.24	2.58494	1.39373	-0.901666	0.571558	2.04621	0.952883	-0.02111	-0.00314126	-0.0478832	0.355924	-0.300453	0	0	-0.0466477	-0.0787633	-0.024929	0.393031	-0.194453	0	0	-0.182686	0.16063	-0.194946	0.566172	-0.450748	0.424247	1.35551	1.5708	0	0	0.375604	-0.343344	0.2385	1.48048	1.5708	0	0
5.25	2.59005	1.39553	-0.904396	0.572157	2.04822	0.952641	-0.0253561	-0.00466	-0.0493434	0.349537	-0.310625	0	0	-0.0476062	-0.0781108	-0.0237765	0.3928	-0.193317	0	0	-0.181086	0.158977	-0.19554	0.565684	-0.450567	0.423935	1.35543	1.5708	0	0	0.377565	-0.341725	0.238135	1.47678	1.5708	0	0
5.26	2.59841	1.40299	-0.911665	0.572556	2.05017	0.951741	-0.0231828	-0.000974509	0.0252475	0.355302	-0.309	0	0	-0.0438514	-0.071945	-0.0217042	0.393713	-0.190875	0	0	-0.174665	0.153624	-0.195847	0.565039	-0.450388	0.423695	1.35566	1.5708	0	0	0.377937	-0.338539	0.235347	1.4735	1.5708	0	0
